<?xml version="1.0" encoding="UTF-8" standalone="no"?>
<!-- Created with Inkscape (http://www.inkscape.org/) -->

<svg
   xmlns:dc="http://purl.org/dc/elements/1.1/"
   xmlns:cc="http://creativecommons.org/ns#"
   xmlns:rdf="http://www.w3.org/1999/02/22-rdf-syntax-ns#"
   xmlns:svg="http://www.w3.org/2000/svg"
   xmlns="http://www.w3.org/2000/svg"
   xmlns:sodipodi="http://sodipodi.sourceforge.net/DTD/sodipodi-0.dtd"
   xmlns:inkscape="http://www.inkscape.org/namespaces/inkscape"
   viewBox="0 0 24 24"
   version="1.1"
   fill="#a2c895">
    <path
       style="stroke:#000000;stroke-width:0.529;stroke-opacity:1"
       d="M 12 2 A 10 10 0 0 0 2 12 A 10 10 0 0 0 12 22 A 10 10 0 0 0 22 12 A 10 10 0 0 0 12 2 z M 7.5 9.3378906 A 1.1629298 1.1629298 0 0 1 8.6621094 10.5 A 1.1629298 1.1629298 0 0 1 7.5 11.662109 A 1.1629298 1.1629298 0 0 1 6.3378906 10.5 A 1.1629298 1.1629298 0 0 1 7.5 9.3378906 z M 16.5 9.3378906 A 1.1629298 1.1629298 0 0 1 17.662109 10.5 A 1.1629298 1.1629298 0 0 1 16.5 11.662109 A 1.1629298 1.1629298 0 0 1 15.337891 10.5 A 1.1629298 1.1629298 0 0 1 16.5 9.3378906 z M 6.0957031 16.052734 L 18.035156 16.052734 A 7.6358584 7.7899582 0 0 1 12.070312 18.992188 A 7.6358584 7.7899582 0 0 1 6.0957031 16.052734 z " />
</svg>
